<?xml version="1.0" encoding="UTF-8"?>
<!DOCTYPE svg PUBLIC "-//W3C//DTD SVG 1.1//EN" "http://www.w3.org/Graphics/SVG/1.1/DTD/svg11.dtd">
<!-- Creator: CorelDRAW Home & Student X6 -->
<svg xmlns="http://www.w3.org/2000/svg" xml:space="preserve" width="100px" height="100px" version="1.1" shape-rendering="geometricPrecision" text-rendering="geometricPrecision" image-rendering="optimizeQuality" fill-rule="evenodd" clip-rule="evenodd"
viewBox="0 0 100 100"
 xmlns:xlink="http://www.w3.org/1999/xlink"
 enable-background="new 0 0 463 463">
 <g id="Ebene_x0020_1">
  <metadata id="CorelCorpID_0Corel-Layer"/>
  <path fill="black" d="M53 88l0 -36c3,-1 6,-4 6,-8l0 -2c4,1 9,5 9,13 0,1 1,3 3,3 0,0 0,0 0,0 1,0 3,-1 3,-3 0,-10 -5,-17 -14,-19l0 0c3,-1 7,-2 11,-2 6,0 12,3 16,8 1,1 1,1 2,1 1,0 1,0 2,-1 1,-1 1,-3 0,-4 -5,-6 -12,-10 -20,-10 -5,0 -11,1 -15,3 1,-2 3,-4 5,-6 3,-2 9,-5 18,-2 1,0 3,0 3,-2 0,-1 0,-3 -2,-3 -8,-3 -16,-2 -23,3 0,0 -1,0 -1,1 2,-4 5,-6 9,-7 1,0 2,-2 2,-3 0,-1 -2,-2 -3,-2 -6,1 -11,6 -14,12 -3,-6 -8,-11 -14,-12 -1,0 -3,1 -3,2 0,1 1,3 2,3 4,1 8,4 10,9 -1,0 -1,-1 -2,-1 -8,-5 -17,-7 -26,-4 -1,0 -2,2 -2,3 0,1 2,2 3,2 7,-2 15,-1 21,3 2,1 4,3 5,5 -4,-2 -9,-3 -14,-3 -8,1 -15,4 -20,10 -1,1 -1,3 0,4 0,0 1,1 2,1 1,0 2,0 2,-1 4,-5 10,-8 16,-8 4,0 7,0 11,2l0 0c-9,2 -14,9 -14,19 0,1 1,3 3,3 0,0 0,0 0,0 1,0 3,-1 3,-3 0,-3 0,-10 9,-13l0 2c0,4 2,7 6,8l0 36c0,1 1,2 2,2l1 0c1,0 2,-1 2,-2z"/>
 </g>
</svg>
