<?xml version="1.0" encoding="UTF-8"?>
<!DOCTYPE svg PUBLIC "-//W3C//DTD SVG 1.1//EN" "http://www.w3.org/Graphics/SVG/1.1/DTD/svg11.dtd">
<!-- Creator: CorelDRAW Home & Student X6 -->
<svg xmlns="http://www.w3.org/2000/svg" xml:space="preserve" width="100px" height="100px" version="1.1" shape-rendering="geometricPrecision" text-rendering="geometricPrecision" image-rendering="optimizeQuality" fill-rule="evenodd" clip-rule="evenodd"
viewBox="0 0 100 100"
 xmlns:xlink="http://www.w3.org/1999/xlink">
 <g id="Ebene_x0020_1">
  <metadata id="CorelCorpID_0Corel-Layer"/>
  <path fill="#08090E" d="M47 22c-1,0 -5,-3 -6,-3 -3,-2 -5,0 -5,3 1,3 10,6 11,8l0 16 -14 -8c0,-2 0,-5 0,-7 0,-2 0,-5 -1,-6 -2,-1 -4,0 -4,2 0,2 0,5 0,7 -2,-1 -8,-5 -9,-5 -2,0 -3,1 -3,2 -1,3 2,4 4,5 1,1 5,3 6,3 -2,1 -3,2 -5,3 -2,1 -4,2 -3,4 0,2 3,3 5,2 1,-1 9,-5 9,-5l14 8 -14 8c-1,1 -3,-1 -5,-2 -3,-2 -8,-6 -9,-1 -1,2 1,3 3,4 1,1 4,2 5,3l-6 3c-2,1 -5,2 -3,5 2,4 7,-2 12,-4 0,2 0,5 0,7 0,2 2,4 4,3 2,-1 1,-4 1,-6 0,-2 0,-5 0,-7 0,-1 13,-8 14,-8l0 16c0,1 -2,1 -3,2 -1,1 -2,1 -3,2 -2,1 -5,2 -5,4 0,1 0,3 1,3 1,1 2,0 4,0 1,-1 5,-3 6,-3 0,2 0,5 0,7 0,2 0,5 3,5 3,0 3,-2 3,-5 0,-3 0,-5 0,-8 1,0 5,3 6,3 1,1 2,1 3,1 1,0 2,-2 1,-3 0,-2 -3,-3 -5,-4 -2,-1 -4,-2 -6,-3l0 -16 14 8c0,2 0,5 0,7 0,2 0,5 1,6 2,1 4,0 4,-2 0,-2 0,-5 0,-7 2,1 4,2 6,3 2,1 5,3 6,0 2,-3 -2,-4 -3,-5 -2,-1 -4,-2 -6,-3 2,-2 8,-3 8,-7 0,-2 -2,-3 -4,-2 -11,6 -8,6 -14,2 -3,-2 -7,-4 -9,-6 2,-1 13,-7 14,-8 1,0 4,2 5,2 2,1 7,5 9,2 1,-3 -5,-5 -8,-7 3,-3 12,-5 9,-9 -2,-4 -8,2 -12,4 0,-2 0,-5 0,-7 0,-2 -2,-4 -4,-2 -2,1 -1,3 -1,6 0,2 0,5 0,7 -1,1 -14,8 -14,8l0 -16 8 -5c1,-1 2,-1 2,-2 0,-3 -3,-4 -5,-2 -1,1 -5,3 -6,3 0,-2 0,-5 0,-7 0,-2 0,-5 -3,-5 -3,0 -3,2 -3,5 0,3 0,5 0,8z"/>
 </g>
</svg>
