<?xml version="1.0" encoding="UTF-8"?>
<!DOCTYPE svg PUBLIC "-//W3C//DTD SVG 1.1//EN" "http://www.w3.org/Graphics/SVG/1.1/DTD/svg11.dtd">
<!-- Creator: CorelDRAW Home & Student X6 -->
<svg xmlns="http://www.w3.org/2000/svg" xml:space="preserve" width="100px" height="100px" version="1.1" shape-rendering="geometricPrecision" text-rendering="geometricPrecision" image-rendering="optimizeQuality" fill-rule="evenodd" clip-rule="evenodd"
viewBox="0 0 100 100"
 xmlns:xlink="http://www.w3.org/1999/xlink">
 <g id="Ebene_x0020_1">
  <metadata id="CorelCorpID_0Corel-Layer"/>
  <g id="_372729192">
   <path fill="black" d="M10 83c0,-4 4,-2 10,-5 2,-1 3,-2 5,-2 3,-1 5,-1 8,-1 3,0 8,2 11,3 1,0 1,1 2,1 4,2 8,1 12,-1 1,0 1,-1 2,-1 5,-2 6,-3 11,-3 2,0 4,1 6,1 3,1 7,4 10,4 1,0 2,0 3,0 3,1 1,5 -1,5 -7,0 -9,-2 -14,-4 -9,-4 -14,4 -22,4 -6,0 -8,-1 -13,-3 -6,-3 -10,-2 -15,1 -4,2 -6,3 -10,3 -1,0 -2,-1 -2,-2z"/>
   <path fill="black" d="M10 73c0,-4 4,-2 10,-5 2,-1 3,-2 5,-2 3,-1 5,-1 8,-1 3,0 8,2 11,3 1,0 1,1 2,1 4,2 8,1 12,-1 1,0 1,-1 2,-1 5,-2 6,-3 11,-3 2,0 4,1 6,1 3,1 7,4 10,4 1,0 2,0 3,0 3,1 1,5 -1,5 -7,0 -9,-2 -14,-4 -9,-4 -14,4 -22,4 -6,0 -8,-1 -13,-3 -6,-3 -10,-2 -15,1 -4,2 -6,3 -10,3 -1,0 -2,-1 -2,-2z"/>
   <path fill="black" d="M10 63c0,-4 4,-2 10,-5 2,-1 3,-2 5,-2 3,-1 5,-1 8,-1 3,0 8,2 11,3 1,0 1,1 2,1 4,2 8,1 12,-1 1,0 1,-1 2,-1 5,-2 6,-3 11,-3 2,0 4,1 6,1 3,1 7,4 10,4 1,0 2,0 3,0 3,1 1,5 -1,5 -7,0 -9,-2 -14,-4 -9,-4 -14,4 -22,4 -6,0 -8,-1 -13,-3 -6,-3 -10,-2 -15,1 -4,2 -6,3 -10,3 -1,0 -2,-1 -2,-2z"/>
   <path fill="#2B2A29" d="M50 15c14,0 25,11 25,25 0,3 -1,7 -2,10 -1,0 -2,0 -3,0 -5,0 -7,0 -11,3 -1,0 -1,1 -2,1 -4,2 -7,3 -12,1 -1,0 -1,-1 -2,-1 -3,-1 -7,-3 -11,-3 -2,0 -4,0 -6,0 -1,-3 -2,-6 -2,-10 0,-14 11,-25 25,-25z"/>
  </g>
 </g>
</svg>
