<?xml version="1.0" encoding="UTF-8"?>
<!DOCTYPE svg PUBLIC "-//W3C//DTD SVG 1.1//EN" "http://www.w3.org/Graphics/SVG/1.1/DTD/svg11.dtd">
<!-- Creator: CorelDRAW Home & Student X6 -->
<svg xmlns="http://www.w3.org/2000/svg" xml:space="preserve" width="100px" height="100px" version="1.1" shape-rendering="geometricPrecision" text-rendering="geometricPrecision" image-rendering="optimizeQuality" fill-rule="evenodd" clip-rule="evenodd"
viewBox="0 0 100 100"
 xmlns:xlink="http://www.w3.org/1999/xlink">
 <g id="Ebene_x0020_1">
  <metadata id="CorelCorpID_0Corel-Layer"/>
  <path fill="#2B2A29" d="M50 40c6,0 10,4 10,10 0,6 -4,10 -10,10 -6,0 -10,-4 -10,-10 0,-6 4,-10 10,-10z"/>
  <g id="_375286664">
   <path fill="#2B2A29" d="M10 50l0 0c0,-1 1,-2 2,-2l20 0c1,0 2,1 2,2l0 0c0,1 -1,2 -2,2l-20 0c-1,0 -2,-1 -2,-2z"/>
   <path fill="#2B2A29" d="M65 50l0 0c0,-1 1,-2 2,-2l20 0c1,0 2,1 2,2l0 0c0,1 -1,2 -2,2l-20 0c-1,0 -2,-1 -2,-2z"/>
  </g>
  <g id="_375284368">
   <path fill="#2B2A29" d="M22 78l0 0c-1,-1 -1,-3 0,-4l14 -14c1,-1 3,-1 4,0l0 0c1,1 1,3 0,4l-14 14c-1,1 -3,1 -4,0z"/>
   <path fill="#2B2A29" d="M61 39l0 0c-1,-1 -1,-3 0,-4l14 -14c1,-1 3,-1 4,0l0 0c1,1 1,3 0,4l-14 14c-1,1 -3,1 -4,0z"/>
  </g>
  <g id="_375279944">
   <path fill="#2B2A29" d="M50 90l0 0c-1,0 -2,-1 -2,-2l0 -20c0,-1 1,-2 2,-2l0 0c1,0 2,1 2,2l0 20c0,1 -1,2 -2,2z"/>
   <path fill="#2B2A29" d="M50 35l0 0c-1,0 -2,-1 -2,-2l0 -20c0,-1 1,-2 2,-2l0 0c1,0 2,1 2,2l0 20c0,1 -1,2 -2,2z"/>
  </g>
  <g id="_375280224">
   <path fill="#2B2A29" d="M78 78l0 0c-1,1 -3,1 -4,0l-14 -14c-1,-1 -1,-3 0,-4l0 0c1,-1 3,-1 4,0l14 14c1,1 1,3 0,4z"/>
   <path fill="#2B2A29" d="M40 39l0 0c-1,1 -3,1 -4,0l-14 -14c-1,-1 -1,-3 0,-4l0 0c1,-1 3,-1 4,0l14 14c1,1 1,3 0,4z"/>
  </g>
 </g>
</svg>
