<?xml version="1.0" encoding="UTF-8"?>
<!DOCTYPE svg PUBLIC "-//W3C//DTD SVG 1.1//EN" "http://www.w3.org/Graphics/SVG/1.1/DTD/svg11.dtd">
<!-- Creator: CorelDRAW Home & Student X6 -->
<svg xmlns="http://www.w3.org/2000/svg" xml:space="preserve" width="100px" height="100px" version="1.1" shape-rendering="geometricPrecision" text-rendering="geometricPrecision" image-rendering="optimizeQuality" fill-rule="evenodd" clip-rule="evenodd"
viewBox="0 0 100 100"
 xmlns:xlink="http://www.w3.org/1999/xlink">
 <g id="Ebene_x0020_1">
  <metadata id="CorelCorpID_0Corel-Layer"/>
  <path fill="#2B2A29" d="M23 53l40 -42c1,-1 2,-1 3,0 1,1 2,2 1,3l-9 29 16 0c1,0 2,1 2,2 0,1 0,2 0,3l-40 43c-1,1 -2,1 -3,0 -1,-1 -1,-2 -1,-3l9 -29 -16 0c-1,0 -2,-1 -2,-2 0,-1 0,-2 0,-3zm8 -1l27 -29c0,0 0,0 0,0 0,0 0,0 0,0l-6 21c0,1 0,2 0,2 0,1 1,1 2,1l14 0c0,0 0,0 0,0 0,0 0,0 0,0l-28 29c0,0 0,0 0,0 0,0 0,0 0,0l7 -21c0,-1 0,-2 0,-2 0,-1 -1,-1 -2,-1l-14 0c0,0 0,0 0,0 0,0 0,0 0,0z"/>
 </g>
</svg>
