<?xml version="1.0" encoding="UTF-8"?>
<!DOCTYPE svg PUBLIC "-//W3C//DTD SVG 1.1//EN" "http://www.w3.org/Graphics/SVG/1.1/DTD/svg11.dtd">
<!-- Creator: CorelDRAW Home & Student X6 -->
<svg xmlns="http://www.w3.org/2000/svg" xml:space="preserve" width="100px" height="100px" version="1.1" shape-rendering="geometricPrecision" text-rendering="geometricPrecision" image-rendering="optimizeQuality" fill-rule="evenodd" clip-rule="evenodd"
viewBox="0 0 100 100"
 xmlns:xlink="http://www.w3.org/1999/xlink">
 <g id="Ebene_x0020_1">
  <metadata id="CorelCorpID_0Corel-Layer"/>
  <g id="_644494712">
   <path fill="#2B2A29" d="M40 30c3,0 5,2 5,5 0,3 -2,5 -5,5 -3,0 -5,-2 -5,-5 0,-3 2,-5 5,-5z"/>
   <path fill="#2B2A29" d="M60 30c3,0 5,2 5,5 0,3 -2,5 -5,5 -3,0 -5,-2 -5,-5 0,-3 2,-5 5,-5z"/>
   <path fill="#2B2A29" d="M33 50l-1 0c-1,0 -1,0 -1,1 0,0 -1,1 0,2 1,10 10,18 20,18 10,0 19,-8 20,-18 0,-1 0,-1 0,-2 0,0 -1,-1 -1,-1l-1 0c-1,0 -2,1 -2,2 -1,7 -7,13 -15,13 -8,0 -14,-6 -15,-13 0,-1 -1,-2 -2,-2z"/>
  </g>
  <path fill="#2B2A29" d="M15 10l8 0c1,0 2,1 2,1 1,2 3,4 5,4 2,0 4,-2 5,-4 0,-1 1,-1 2,-1l7 0c1,0 2,1 2,1 1,2 3,4 5,4 2,0 4,-2 5,-4 0,-1 1,-1 2,-1l7 0c1,0 2,1 2,1 1,2 3,4 5,4 2,0 4,-2 5,-4 0,-1 1,-1 2,-1l8 0c3,0 5,2 5,5l0 8c0,1 -1,2 -1,2 -2,1 -4,3 -4,5 0,2 2,4 4,5 1,0 1,1 1,2l0 7c0,1 -1,2 -1,2 -2,1 -4,3 -4,5 0,2 2,4 4,5 1,0 1,1 1,2l0 7c0,1 -1,2 -1,2 -2,1 -4,3 -4,5 0,2 2,4 4,5 1,0 1,1 1,2l0 8c0,3 -2,5 -5,5l-8 0c-1,0 -2,-1 -2,-1 -1,-2 -3,-4 -5,-4 -2,0 -4,2 -5,4 0,1 -1,1 -2,1l-7 0c-1,0 -2,-1 -2,-1 -1,-2 -3,-4 -5,-4 -2,0 -4,2 -5,4 0,1 -1,1 -2,1l-7 0c-1,0 -2,-1 -2,-1 -1,-2 -3,-4 -5,-4 -2,0 -4,2 -5,4 0,1 -1,1 -2,1l-8 0c-3,0 -5,-2 -5,-5l0 -8c0,-1 1,-2 1,-2 2,-1 4,-3 4,-5 0,-2 -2,-4 -4,-5 -1,0 -1,-1 -1,-2l0 -7c0,-1 1,-2 1,-2 2,-1 4,-3 4,-5 0,-2 -2,-4 -4,-5 -1,0 -1,-1 -1,-2l0 -7c0,-1 1,-2 1,-2 2,-1 4,-3 4,-5 0,-2 -2,-4 -4,-5 -1,0 -1,-1 -1,-2l0 -8c0,-3 2,-5 5,-5zm10 10l50 0c3,0 5,2 5,5l0 50c0,3 -2,5 -5,5l-50 0c-3,0 -5,-2 -5,-5l0 -50c0,-3 2,-5 5,-5z"/>
 </g>
</svg>
