<?xml version="1.0" encoding="UTF-8"?>
<!DOCTYPE svg PUBLIC "-//W3C//DTD SVG 1.1//EN" "http://www.w3.org/Graphics/SVG/1.1/DTD/svg11.dtd">
<!-- Creator: CorelDRAW Home & Student X6 -->
<svg xmlns="http://www.w3.org/2000/svg" xml:space="preserve" width="539px" height="2000px" version="1.1" shape-rendering="geometricPrecision" text-rendering="geometricPrecision" image-rendering="optimizeQuality" fill-rule="evenodd" clip-rule="evenodd"
viewBox="0 0 539 2000"
 xmlns:xlink="http://www.w3.org/1999/xlink">
 <g id="Ebene_x0020_1">
  <metadata id="CorelCorpID_0Corel-Layer"/>
  <g id="_491068632">
   <path fill="#2B2A29" fill-rule="nonzero" d="M81 0l387 0c39,0 71,32 71,71l0 1043c0,39 -32,71 -71,71l-386 0 -2 0 1 0 -1 0c-42,0 -74,-34 -74,-75l0 -153c0,-41 32,-74 73,-74l4 0c41,0 74,33 74,74l0 50c0,15 12,27 27,27l178 0c15,0 27,-12 27,-27l0 -829c0,-15 -12,-27 -27,-27l-280 0c-42,0 -75,-34 -75,-75l0 0c0,-42 34,-75 75,-75z"/>
   <path fill="#2B2A29" fill-rule="nonzero" d="M139 1302l118 336c2,6 7,9 13,9 6,0 11,-4 13,-9l117 -336c10,-29 36,-48 67,-48l1 0c24,0 44,11 58,30 14,19 17,42 9,64l-214 615c-8,22 -27,36 -50,36 -23,0 -43,-14 -50,-36l-215 -615c-8,-22 -5,-45 9,-64 14,-19 34,-30 58,-30l1 0c31,0 57,18 67,47z"/>
  </g>
 </g>
</svg>
